<svg width="421" height="421" viewBox="0 0 421 421" fill="none" xmlns="http://www.w3.org/2000/svg">
<rect width="421" height="421" rx="210.5" fill="#1976D2"/>
<path d="M385.872 277.485C366.471 277.485 350.702 293.254 350.702 312.613C350.702 331.972 366.471 347.762 385.872 347.762C405.21 347.762 421 331.972 421 312.613C421 293.254 405.21 277.485 385.872 277.485Z" fill="white"/>
<path d="M264.249 275.006L260.745 276.417C258.373 276.417 256.579 275.797 255.403 274.515C254.228 273.212 253.138 270.498 251.985 266.31L218.246 137.166H152.306L121.388 266.31C120.319 270.861 119.101 273.853 117.691 275.199L112.713 277.293C108.46 277.293 105.255 273.639 103.225 266.31L60.4267 137.166H0L56.6661 305.669C60.1062 315.647 63.8455 323.638 67.8198 329.557C71.8155 335.476 77.2642 340.006 84.1658 343.232C91.1316 346.395 99.8708 347.997 110.554 347.997C138.353 347.997 156.088 333.51 163.652 304.493L186.537 216.866L210.532 303.083C213.16 312.121 216.771 319.985 221.28 326.63C225.788 333.254 231.451 338.51 238.245 342.313C245.104 346.095 253.138 347.997 262.305 347.997C268.566 347.997 275.147 346.202 282.07 342.634C288.971 339.087 295.403 333.831 301.343 326.822C307.262 319.835 311.834 311.737 314.997 302.485L393.628 73H334.548L267.583 268.297C266.365 271.908 265.104 274.066 264.249 275.006Z" fill="white"/>
<path d="M385.872 347.762C366.471 347.762 350.702 331.972 350.702 312.613C350.702 293.254 366.471 277.485 385.872 277.485C405.21 277.485 421 293.254 421 312.613C421 331.972 405.21 347.762 385.872 347.762Z" fill="white"/>
</svg>
